<svg width="222" height="175" viewBox="0 0 222 175" fill="none" xmlns="http://www.w3.org/2000/svg">
<path d="M71.5821 114.841C68.3936 120.397 68.0748 128.73 69.111 135.476C70.227 142.54 71.9807 149.603 71.1836 156.667C70.3865 163.73 66.1617 171.032 59.3064 172.936C50.6177 175.317 42.2479 168.651 36.3491 161.825C15.7035 137.936 3.98573 107.063 0.797223 75.7142C-1.03617 58.0952 -0.0796168 39.365 8.60907 23.8889C17.2978 8.41266 35.3128 -2.85718 52.7699 0.634881C66.5602 3.41266 77.5606 14.5238 91.3509 17.0635C102.75 19.1269 114.228 15.0793 125.388 11.746C136.468 8.41266 148.824 5.87298 159.346 10.7142C168.513 14.9206 174.651 24.1269 177.122 33.8095C179.673 43.492 179.035 53.8095 177.839 63.7301C173.614 98.3333 161.897 132.381 141.49 160.714C138.302 165.159 134.794 169.524 130.091 172.302C125.388 175.079 119.171 175.952 114.468 173.175C108.489 169.682 106.815 161.905 105.699 155.079C103.627 141.905 104.583 113.889 88.1624 109.365C79.6331 107.063 74.4518 109.841 71.5821 114.841Z" fill="#E2F3FF"/>
<path d="M126.982 157.063C114.547 151.984 114.069 138.571 109.446 128.016C105.699 119.444 99.6409 111.587 89.8362 109.286C88.1623 108.889 86.4883 108.73 84.894 108.73C85.9303 108.889 86.9666 109.127 88.1623 109.444C104.583 113.968 103.627 142.063 105.699 155.159C106.815 161.984 108.489 169.762 114.467 173.254C119.171 176.032 125.388 175.159 130.091 172.381C134.794 169.603 138.302 165.238 141.49 160.794C142.686 159.127 143.881 157.46 144.997 155.714C139.896 158.889 133.28 159.683 126.982 157.063Z" fill="#B9E2FF"/>
<path d="M51.0162 5.55522C52.4511 4.04728 54.0453 2.61871 55.7193 1.34887C54.7627 1.03141 53.8062 0.793313 52.7699 0.634583C35.3128 -2.93685 17.2978 8.333 8.60907 23.8092C-0.0796167 39.3647 -1.03617 58.0155 0.797223 75.714C3.98573 107.063 15.7035 137.936 36.3491 161.904C42.2478 168.73 50.6177 175.396 59.3064 173.016C66.2414 171.111 70.3864 163.809 71.1836 156.746C71.2633 155.952 71.343 155.158 71.343 154.365C69.111 158.174 64.8863 160 60.2629 158.333C52.5308 155.635 48.306 145.476 45.0378 138.73C38.1028 124.523 33.7983 109.047 31.9649 93.333C30.1315 77.9362 30.6098 62.3013 33.3997 47.0632C36.0303 32.2219 40.4942 16.7457 51.0162 5.55522Z" fill="#B9E2FF"/>
<path d="M69.9877 66.3492C76.4445 57.8571 75.9662 45.873 67.8355 38.1746C60.5816 31.2698 49.661 26.8254 39.6172 26.3492C32.0444 26.0317 23.6746 28.7301 19.689 35.4762C13.4714 46.1111 20.7252 57.8571 28.3777 65.3175C39.6172 76.2698 59.3062 80.3968 69.9877 66.3492Z" fill="white"/>
<path d="M166.36 15.3175C155.041 16.2698 143.483 20 132.323 27.3016C106.416 44.127 95.9741 78.0159 107.214 106.587C114.627 125.397 130.41 141.667 149.382 149.048C165.005 123.254 174.252 93.7302 177.999 63.8095C179.194 53.8095 179.832 43.5714 177.281 33.8889C175.368 26.8254 171.701 20.1587 166.36 15.3175Z" fill="#B9E2FF"/>
<path d="M220.485 87.381C231.884 38.5714 176.962 -1.42857 130.888 28.4921C109.047 42.6984 100.199 71.2698 109.685 95.3175C118.692 118.254 142.526 136.746 168.034 134.603C194.898 132.381 214.985 111.27 220.485 87.381Z" fill="#6BD351"/>
<path d="M155.52 26.6667C141.092 29.2857 128.497 36.9048 120.366 49.2857C111.199 63.254 110.641 79.8413 115.982 95.3968C116.301 96.2699 117.576 95.9524 117.337 95C110.163 66.3492 127.779 36.746 155.998 28.4127C157.193 28.0952 156.715 26.4286 155.52 26.6667Z" fill="#B1FAB2"/>
<path d="M200.876 85.2381L199.68 59.127L176.723 60.9524L174.571 38.8889L148.824 40.3968C148.824 40.3968 149.461 57.3809 149.7 63.4127L126.982 66.5873L129.533 92.1428L152.012 90.9524C152.57 95.9524 154.563 114.048 154.563 114.048L179.593 111.429C179.593 111.429 178.397 93.3333 178.238 88.3333L200.876 85.2381Z" fill="white"/>
</svg>
